Coordinates
version=1
nRows=8
nColumns=63
inDegrees=yes

Units are S.I. units (second, meters, Newtons, ...)
If the header above contains a line with 'inDegrees', this indicates whether rotational values are in degrees (yes) or radians (no).

endheader
time	pelvis_tilt	pelvis_list	pelvis_rotation	pelvis_tx	pelvis_ty	pelvis_tz	hip_flexion_r	hip_adduction_r	hip_rotation_r	knee_angle_r	knee_angle_r_beta	ankle_angle_r	subtalar_angle_r	mtp_angle_r	hip_flexion_l	hip_adduction_l	hip_rotation_l	knee_angle_l	knee_angle_l_beta	ankle_angle_l	subtalar_angle_l	mtp_angle_l	L5_S1_Flex_Ext	L5_S1_Lat_Bending	L5_S1_axial_rotation	L4_L5_Flex_Ext	L4_L5_Lat_Bending	L4_L5_axial_rotation	L3_L4_Flex_Ext	L3_L4_Lat_Bending	L3_L4_axial_rotation	L2_L3_Flex_Ext	L2_L3_Lat_Bending	L2_L3_axial_rotation	L1_L2_Flex_Ext	L1_L2_Lat_Bending	L1_L2_axial_rotation	L1_T12_Flex_Ext	L1_T12_Lat_Bending	L1_T12_axial_rotation	Abs_r3	Abs_r2	Abs_r1	Abs_t1	Abs_t2	neck_flexion	neck_bending	neck_rotation	arm_flex_r	arm_add_r	arm_rot_r	elbow_flex_r	pro_sup_r	wrist_flex_r	wrist_dev_r	arm_flex_l	arm_add_l	arm_rot_l	elbow_flex_l	pro_sup_l	wrist_flex_l	wrist_dev_l
      5.74418605	     12.77314829	     12.01784600	     89.33117941	      0.22963133	      0.95212859	      0.55196567	    -19.95728311	      8.85566970	     10.97750959	      3.25639455	      0.05683481	     18.81932354	     -6.94586862	      0.00000000	    -20.61512166	    -11.05033671	     -0.30338526	      0.86984883	      0.01518173	     27.44404031	     -1.25796923	      0.00000000	     -2.05791976	     -0.05987937	      9.40248242	     -3.82176279	     -0.07963956	      9.99013757	     -3.38095638	     -0.14559070	      9.99013757	     -2.35199650	     -0.14559070	      8.22717212	     -1.91098429	     -0.12210601	      7.63951697	     -1.17589535	     -0.09275314	      7.05186181	    -14.69951508	     -0.67736739	     52.29378647	      0.00000000	      0.00000000	    -17.31260441	     16.54378601	    -44.76267673	     23.94431945	    -31.34661518	    -13.43426494	    149.80209836	     89.02560647	     -1.23335177	     12.33177759	     88.98501246	     51.54739252	    156.26018806	      0.03796205	      0.51877400	    -69.93786586	    -24.73782792
      5.76744186	     13.59170361	     12.11321453	     89.17695642	      0.22671997	      0.95265466	      0.55150213	    -20.12660839	      9.43729371	     10.82102369	      3.19744687	      0.05580598	     18.46992619	     -6.35293037	      0.00000000	    -20.83028147	    -11.66752722	     -0.36572143	      0.85194608	      0.01486926	     27.53587476	     -1.54001040	      0.00000000	     -2.00149883	      0.15067518	      9.73757046	     -3.71698347	      0.20039799	     10.34616862	     -3.28826242	      0.36635163	     10.34616862	     -2.28751301	      0.36635163	      8.52037415	     -1.85859181	      0.30725682	      7.91177600	     -1.14365643	      0.23339585	      7.30317785	    -14.29650597	      1.70446775	     54.15744564	      0.00000000	      0.00000000	    -16.29236866	     16.34696831	    -44.79572659	     20.93082376	    -33.81604310	    -17.22443413	    149.73877274	     88.90545945	     -3.83295906	     14.15098176	     87.89948069	     52.30583074	    155.86977265	      0.03730759	      0.51125536	    -69.93935898	    -24.74217304
      5.79069767	     14.44419225	     12.22732222	     89.09667049	      0.22357169	      0.95333672	      0.55155842	    -20.24143239	     10.08350133	     10.50690932	      3.22684423	      0.05631906	     18.04620013	     -5.79608411	      0.00000000	    -21.01385560	    -12.34249819	     -0.42615702	      0.88727842	      0.01548593	     27.55941101	     -1.73778946	      0.00000000	     -1.94724393	      0.38104083	     10.03033479	     -3.61622671	      0.50678430	     10.65723071	     -3.19912706	      0.92646267	     10.65723071	     -2.22550509	      0.92646267	      8.77654294	     -1.80821072	      0.77701846	      8.14964701	     -1.11265518	      0.59023225	      7.52275109	    -13.90896868	      4.31041008	     55.78571298	      0.00000000	      0.00000000	    -15.27215831	     15.88513339	    -44.81456325	     17.25570088	    -36.04234553	    -21.32288265	    149.66151289	     88.57743793	     -6.49671127	     15.35165172	     86.40893644	     53.09082926	    156.02419163	      0.03676522	      0.50007398	    -69.94082510	    -24.74551737
      5.81395349	     15.32431627	     12.48962800	     88.96931612	      0.22026202	      0.95416787	      0.55209916	    -20.45807872	     10.72798825	     10.08958564	      3.34113242	      0.05831376	     17.62722202	     -5.08134358	      0.00000000	    -21.34839721	    -13.01948928	     -0.51159420	      0.91146476	      0.01590806	     27.56690516	     -1.94966097	      0.00000000	     -1.91644927	      0.62503935	     10.27468430	     -3.55903794	      0.83130234	     10.91685207	     -3.14853450	      1.51972068	     10.91685207	     -2.19030987	      1.51972068	      8.99034876	     -1.77961479	      1.27458025	      8.34818099	     -1.09505911	      0.96818596	      7.70601323	    -13.68900548	      7.07057016	     57.14471168	      0.00000000	      0.00000000	    -14.18057309	     15.44859925	    -44.82242056	     13.33204801	    -38.04703873	    -25.44280077	    149.59404526	     87.86443712	     -9.68854125	     15.95278820	     84.71420912	     53.88446894	    156.46057329	      0.03638177	      0.49230116	    -69.94232286	    -24.74757650
      5.83720930	     16.21846881	     12.90799164	     88.72024290	      0.21672189	      0.95512639	      0.55281201	    -20.80209440	     11.31168004	      9.48458243	      3.52519234	      0.06152621	     17.34625913	     -3.91003277	      0.00000000	    -21.88173949	    -13.64649905	     -0.62933684	      0.92683806	      0.01617638	     27.56700264	     -2.23635229	      0.00000000	     -1.91392696	      0.87412785	     10.45122596	     -3.55435377	      1.16259004	     11.10442758	     -3.14439061	      2.12535446	     11.10442758	     -2.18742713	      2.12535446	      9.14482271	     -1.77727258	      1.78252151	      8.49162109	     -1.09361787	      1.35402404	      7.83841947	    -13.67098892	      9.88830908	     58.12658340	      0.00000000	      0.00000000	    -13.02874673	     15.11469090	    -44.82122471	      9.46596984	    -39.83341546	    -29.12936078	    149.54317600	     86.73200119	    -13.53439141	     15.75413011	     82.98585330	     54.59064528	    157.41590909	      0.03608846	      0.48995925	    -69.94346399	    -24.75115300
      5.86046512	     17.02589380	     13.11491333	     88.57430355	      0.21322308	      0.95599191	      0.55373039	    -20.77518794	     11.79933834	      7.26711460	      3.90195767	      0.06810201	     17.61496110	     -0.46160063	      0.00000000	    -22.13626104	    -14.22804966	     -0.42690031	      0.93407380	      0.01630266	     27.48333399	     -2.82972631	      0.00000000	     -1.90549596	      1.08526044	     10.49720543	     -3.53869654	      1.44339638	     11.15328077	     -3.13053930	      2.63870222	     11.15328077	     -2.17779133	      2.63870222	      9.18505475	     -1.76944354	      2.21306308	      8.52897941	     -1.08880039	      1.68106842	      7.87290407	    -13.61076706	     12.27668311	     58.38230742	      0.00000000	      0.00000000	    -11.55855745	     15.07039118	    -44.81182173	      5.83532707	    -40.81380817	    -31.97216290	    149.52836400	     85.02110240	    -17.81417877	     14.71600614	     81.30236312	     55.10777007	    159.41439175	      0.03598348	      0.49410669	    -69.94412534	    -24.75467929
      5.88372093	     17.88188580	     13.23562591	     88.36743825	      0.20940234	      0.95690128	      0.55441937	    -20.73224748	     12.32655773	      6.23257389	      4.11241579	      0.07177520	     17.58882692	      1.47608670	      0.00000000	    -22.33855464	    -14.80801514	     -0.44273855	      0.94928718	      0.01656819	     27.36211726	     -3.27218960	      0.00000000	     -1.88721740	      1.28044588	     10.46458249	     -3.50475144	      1.70299302	     11.11861889	     -3.10050947	      3.11327611	     11.11861889	     -2.15690077	      3.11327611	      9.15650968	     -1.75247008	      2.61108524	      8.50247327	     -1.07835602	      1.98341067	      7.84843687	    -13.48020518	     14.48465989	     58.20086842	      0.00000000	      0.00000000	     -9.83347549	     15.21608705	    -44.79793489	      2.14078561	    -41.01329951	    -34.79302308	    149.49504030	     82.88021524	    -19.73684732	     13.12863290	     79.58750849	     55.60681631	    162.13501335	      0.03607965	      0.50528054	    -69.94430802	    -24.75720703
      5.90697674	     18.67070186	     13.17812271	     88.32188404	      0.20563403	      0.95763679	      0.55485841	    -20.52173539	     12.90272268	      6.16161447	      4.22833128	      0.07379830	     17.37012004	      1.83164324	      0.00000000	    -22.32050554	    -15.38831908	     -0.55850781	      0.96398669	      0.01682474	     27.29698846	     -3.39191762	      0.00000000	     -1.86088386	      1.43049483	     10.29429716	     -3.45584741	      1.90255812	     10.93769074	     -3.05724609	      3.47810512	     10.93769074	     -2.12680416	      3.47810512	      9.00751002	     -1.72801675	      2.91706505	      8.36411644	     -1.06330904	      2.21583649	      7.72072287	    -13.29210729	     16.18204357	     57.25379253	      0.00000000	      0.00000000	     -7.86500573	     15.40012600	    -44.77722762	     -0.85932530	    -40.45267815	    -36.59585573	    149.48127630	     82.23667357	    -20.37941409	     12.40745354	     78.03608489	     55.94316995	    165.24600531	      0.03647498	      0.52446932	    -69.94405042	    -24.75792473
